<svg width="30" height="30" viewBox="0 0 30 30" fill="none" xmlns="http://www.w3.org/2000/svg">
<path d="M6.71875 13.9375H23.2812M6.71875 10.1875H23.2812M6.71875 17.6875H17.0312M25.3125 5.8125H4.6875C4.19022 5.8125 3.71331 6.01004 3.36167 6.36167C3.01004 6.71331 2.8125 7.19022 2.8125 7.6875V20.1875C2.8125 20.6848 3.01004 21.1617 3.36167 21.5133C3.71331 21.865 4.19022 22.0625 4.6875 22.0625H5.7125V26.6875L10.875 22.0625H25.3125C25.8098 22.0625 26.2867 21.865 26.6383 21.5133C26.99 21.1617 27.1875 20.6848 27.1875 20.1875V7.6875C27.1875 7.19022 26.99 6.71331 26.6383 6.36167C26.2867 6.01004 25.8098 5.8125 25.3125 5.8125Z" stroke="black" stroke-width="0.5" stroke-linecap="round" stroke-linejoin="round"/>
</svg>
