<svg width="24" height="20" viewBox="0 0 24 20" fill="none" xmlns="http://www.w3.org/2000/svg">
<path d="M6.8112 6.25H4.8C4.16348 6.25 3.55303 6.51339 3.10294 6.98223C2.65286 7.45107 2.4 8.08696 2.4 8.75V15C2.4 15.663 2.65286 16.2989 3.10294 16.7678C3.55303 17.2366 4.16348 17.5 4.8 17.5H19.2C19.8365 17.5 20.447 17.2366 20.8971 16.7678C21.3471 16.2989 21.6 15.663 21.6 15V8.75C21.6 8.08696 21.3471 7.45107 20.8971 6.98223C20.447 6.51339 19.8365 6.25 19.2 6.25H17.1888L16.7244 4.37375C16.5911 3.83724 16.2905 3.36206 15.8698 3.02289C15.449 2.68372 14.932 2.49979 14.4 2.5H9.6C9.06799 2.49979 8.55098 2.68372 8.13024 3.02289C7.7095 3.36206 7.40887 3.83724 7.2756 4.37375L6.8112 6.25ZM4.9512 3.75C5.484 1.59375 7.3632 1.61604e-07 9.6 1.61604e-07H14.4C15.4643 -0.000281619 16.4986 0.36794 17.3401 1.04676C18.1817 1.72559 18.7827 2.67651 19.0488 3.75H19.2C20.473 3.75 21.6939 4.27678 22.5941 5.21447C23.4943 6.15215 24 7.42392 24 8.75V15C24 16.3261 23.4943 17.5979 22.5941 18.5355C21.6939 19.4732 20.473 20 19.2 20H4.8C3.52696 20 2.30606 19.4732 1.40589 18.5355C0.505713 17.5979 0 16.3261 0 15V8.75C0 7.42392 0.505713 6.15215 1.40589 5.21447C2.30606 4.27678 3.52696 3.75 4.8 3.75H4.9512ZM12 16.25C10.727 16.25 9.50606 15.7232 8.60589 14.7855C7.70571 13.8479 7.2 12.5761 7.2 11.25C7.2 9.92392 7.70571 8.65215 8.60589 7.71447C9.50606 6.77678 10.727 6.25 12 6.25C13.273 6.25 14.4939 6.77678 15.3941 7.71447C16.2943 8.65215 16.8 9.92392 16.8 11.25C16.8 12.5761 16.2943 13.8479 15.3941 14.7855C14.4939 15.7232 13.273 16.25 12 16.25ZM12 13.75C12.6365 13.75 13.247 13.4866 13.6971 13.0178C14.1471 12.5489 14.4 11.913 14.4 11.25C14.4 10.587 14.1471 9.95107 13.6971 9.48223C13.247 9.01339 12.6365 8.75 12 8.75C11.3635 8.75 10.753 9.01339 10.3029 9.48223C9.85286 9.95107 9.6 10.587 9.6 11.25C9.6 11.913 9.85286 12.5489 10.3029 13.0178C10.753 13.4866 11.3635 13.75 12 13.75ZM19.2 10C19.5183 10 19.8235 9.8683 20.0485 9.63388C20.2736 9.39946 20.4 9.08152 20.4 8.75C20.4 8.41848 20.2736 8.10054 20.0485 7.86612C19.8235 7.6317 19.5183 7.5 19.2 7.5C18.8817 7.5 18.5765 7.6317 18.3515 7.86612C18.1264 8.10054 18 8.41848 18 8.75C18 9.08152 18.1264 9.39946 18.3515 9.63388C18.5765 9.8683 18.8817 10 19.2 10Z" fill="#7B8892"/>
</svg>
