<svg width="29" height="30" viewBox="0 0 29 30" fill="none" xmlns="http://www.w3.org/2000/svg">
<g filter="url(#filter0_d_1_95)">
<path d="M15.591 25.904C15.4021 26.2377 15.1278 26.5151 14.7962 26.7077C14.4646 26.9003 14.0878 27.0012 13.7043 27C12.3643 27 11.3403 26.4933 10.6616 25.6027C10.0256 24.7653 9.7763 23.696 9.69763 22.684C9.5563 20.8573 9.9483 18.8067 10.2363 17.5267H3.2363C2.35497 17.5267 1.74697 17.008 1.41763 16.3507C1.11763 15.756 1.0163 15.012 1.00163 14.276C0.973633 12.7773 1.3083 10.8573 1.81097 9.00133C2.31763 7.13467 3.01363 5.25067 3.7563 3.81067C4.1243 3.096 4.52563 2.45067 4.9483 1.96667C5.32163 1.53867 5.91497 1 6.68697 1H23.3816C24.6283 1 25.667 1.99733 25.667 3.26267V15.776C25.667 16.6133 25.2016 17.3747 24.4696 17.7667M24.4696 17.7667C23.9496 18.0467 23.439 18.3027 22.939 18.5547C22.0323 19.012 21.159 19.452 20.3083 19.9813C19.031 20.776 17.9803 21.6747 17.2976 22.8827L15.591 25.904" fill="black"/>
<path d="M15.591 25.904C15.4021 26.2377 15.1278 26.5151 14.7962 26.7077C14.4646 26.9003 14.0878 27.0012 13.7043 27C12.3643 27 11.3403 26.4933 10.6616 25.6027C10.0256 24.7653 9.7763 23.696 9.69763 22.684C9.5563 20.8573 9.9483 18.8067 10.2363 17.5267H3.2363C2.35497 17.5267 1.74697 17.008 1.41763 16.3507C1.11763 15.756 1.0163 15.012 1.00163 14.276C0.973633 12.7773 1.3083 10.8573 1.81097 9.00133C2.31763 7.13467 3.01363 5.25067 3.7563 3.81067C4.1243 3.096 4.52563 2.45067 4.9483 1.96667C5.32163 1.53867 5.91497 1 6.68697 1H23.3816C24.6283 1 25.667 1.99733 25.667 3.26267V15.776C25.667 16.6133 25.2016 17.3747 24.4696 17.7667C23.9496 18.0467 23.439 18.3027 22.939 18.5547C22.0323 19.012 21.159 19.452 20.3083 19.9813C19.031 20.776 17.9803 21.6747 17.2976 22.8827L15.591 25.904Z" stroke="black" stroke-width="1.5"/>
</g>
<defs>
<filter id="filter0_d_1_95" x="0.25" y="0.25" width="28.167" height="29.5" filterUnits="userSpaceOnUse" color-interpolation-filters="sRGB">
<feFlood flood-opacity="0" result="BackgroundImageFix"/>
<feColorMatrix in="SourceAlpha" type="matrix" values="0 0 0 0 0 0 0 0 0 0 0 0 0 0 0 0 0 0 127 0" result="hardAlpha"/>
<feOffset dx="1" dy="1"/>
<feGaussianBlur stdDeviation="0.5"/>
<feComposite in2="hardAlpha" operator="out"/>
<feColorMatrix type="matrix" values="0 0 0 0 0 0 0 0 0 0 0 0 0 0 0 0 0 0 0.25 0"/>
<feBlend mode="normal" in2="BackgroundImageFix" result="effect1_dropShadow_1_95"/>
<feBlend mode="normal" in="SourceGraphic" in2="effect1_dropShadow_1_95" result="shape"/>
</filter>
</defs>
</svg>
