<svg width="30" height="30" viewBox="0 0 30 30" fill="none" xmlns="http://www.w3.org/2000/svg">
<g clip-path="url(#clip0_113_7181)">
<path d="M30 15C30 11.0218 28.4196 7.20644 25.6066 4.3934C22.7936 1.58035 18.9782 0 15 0C11.0218 0 7.20644 1.58035 4.3934 4.3934C1.58035 7.20644 0 11.0218 0 15C0 18.9782 1.58035 22.7936 4.3934 25.6066C7.20644 28.4196 11.0218 30 15 30C18.9782 30 22.7936 28.4196 25.6066 25.6066C28.4196 22.7936 30 18.9782 30 15ZM27 15C27.0002 17.2456 26.3704 19.4463 25.182 21.3517C23.9936 23.2572 22.2943 24.7909 20.2775 25.7785C18.2607 26.7661 16.0072 27.168 13.7734 26.9385C11.5395 26.7089 9.41481 25.8571 7.641 24.48L24.48 7.641C26.058 9.672 27 12.228 27 15ZM22.359 5.52L5.52 22.359C3.7252 20.0502 2.83524 17.1656 3.0173 14.2469C3.19937 11.3283 4.44094 8.57655 6.50874 6.50874C8.57655 4.44094 11.3283 3.19937 14.2469 3.0173C17.1656 2.83524 20.0502 3.7252 22.359 5.52Z" fill="black"/>
</g>
<defs>
<clipPath id="clip0_113_7181">
<rect width="30" height="30" fill="white"/>
</clipPath>
</defs>
</svg>
