<svg width="15" height="15" viewBox="0 0 15 15" fill="none" xmlns="http://www.w3.org/2000/svg">
<path d="M3 2.75025C3 2.02084 3.28976 1.3213 3.80553 0.80553C4.3213 0.289758 5.02084 0 5.75025 0H12.2498C12.9792 0 13.6787 0.289758 14.1945 0.80553C14.7102 1.3213 15 2.02084 15 2.75025V9.24975C15 9.97916 14.7102 10.6787 14.1945 11.1945C13.6787 11.7102 12.9792 12 12.2498 12H5.75025C5.02084 12 4.3213 11.7102 3.80553 11.1945C3.28976 10.6787 3 9.97916 3 9.24975V2.75025Z" fill="white"/>
<path d="M0 5.25003C0 4.42953 0.39975 3.87903 1.1355 3.46953C1.30935 3.37286 1.51448 3.34921 1.70577 3.40378C1.89706 3.45835 2.05883 3.58668 2.1555 3.76053C2.25217 3.93438 2.27582 4.13951 2.22125 4.3308C2.16668 4.52208 2.03835 4.68386 1.8645 4.78053C1.566 4.94628 1.5 5.03703 1.5 5.25003V12.75C1.5 13.161 1.839 13.5 2.25 13.5H9.7485C9.9885 13.5 10.212 13.3845 10.3523 13.1948L10.401 13.1198C10.4498 13.0342 10.5149 12.959 10.5927 12.8986C10.6705 12.8382 10.7594 12.7937 10.8544 12.7677C10.9494 12.7416 11.0486 12.7345 11.1463 12.7468C11.2441 12.7591 11.3384 12.7905 11.424 12.8393C11.5096 12.888 11.5847 12.9532 11.6452 13.031C11.7056 13.1088 11.7501 13.1977 11.7761 13.2927C11.8022 13.3877 11.8092 13.4869 11.797 13.5846C11.7847 13.6823 11.7533 13.7767 11.7045 13.8623C11.5081 14.2076 11.2239 14.4947 10.8806 14.6946C10.5373 14.8944 10.1472 14.9998 9.75 15H2.25C1.011 15 0 13.989 0 12.75V5.25003Z" fill="white"/>
</svg>
