<svg width="29" height="29" viewBox="0 0 29 29" fill="none" xmlns="http://www.w3.org/2000/svg">
<path d="M12.0833 25.3753H16.9167C16.9167 26.7045 15.8292 27.792 14.5 27.792C13.1708 27.792 12.0833 26.7045 12.0833 25.3753ZM25.375 22.9587V24.167H3.625V22.9587L6.04167 20.542V13.292C6.04167 9.54616 8.45833 6.28366 12.0833 5.19616V4.83366C12.0833 3.50449 13.1708 2.41699 14.5 2.41699C15.8292 2.41699 16.9167 3.50449 16.9167 4.83366V5.19616C20.5417 6.28366 22.9583 9.54616 22.9583 13.292V20.542L25.375 22.9587ZM20.5417 13.292C20.5417 9.90866 17.8833 7.25033 14.5 7.25033C11.1167 7.25033 8.45833 9.90866 8.45833 13.292V21.7503H20.5417V13.292Z" fill="black"/>
</svg>
