<svg width="44" height="44" viewBox="0 0 44 44" fill="none" xmlns="http://www.w3.org/2000/svg">
<g clip-path="url(#clip0_113_7261)">
<path d="M12.7043 31.2956L4.42455 25.4686C4.05478 25.2076 3.76226 24.8517 3.57781 24.4384C3.39335 24.0251 3.32379 23.5696 3.37645 23.1201C3.42912 22.6706 3.60205 22.2436 3.87704 21.8841C4.15203 21.5246 4.51889 21.2459 4.93897 21.0775L30.3232 10.9243C30.708 10.771 31.1292 10.7339 31.5348 10.8174C31.9404 10.901 32.3126 11.1016 32.6055 11.3944C32.8983 11.6873 33.0989 12.0595 33.1825 12.4651C33.266 12.8708 33.2289 13.292 33.0756 13.6767L22.9211 39.0623C22.7522 39.4821 22.4732 39.8487 22.1135 40.1233C21.7538 40.398 21.3268 40.5707 20.8773 40.6232C20.4278 40.6757 19.9724 40.6061 19.5591 40.4217C19.1458 40.2373 18.7899 39.945 18.5287 39.5754L12.7043 31.2956ZM6.49284 23.4852L13.5542 28.457L20.0109 22.0002C20.2747 21.7365 20.6324 21.5884 21.0053 21.5884C21.3783 21.5884 21.736 21.7365 21.9997 22.0002C22.2634 22.264 22.4116 22.6216 22.4116 22.9946C22.4116 23.3676 22.2634 23.7252 21.9997 23.989L15.5429 30.4457L20.5148 37.5071L29.8605 14.1394L6.49284 23.4852Z" fill="black"/>
</g>
<defs>
<clipPath id="clip0_113_7261">
<rect width="30" height="30" fill="white" transform="translate(0.786621 22) rotate(-45)"/>
</clipPath>
</defs>
</svg>
