<svg width="35" height="35" viewBox="0 0 35 35" fill="none" xmlns="http://www.w3.org/2000/svg">
<path fill-rule="evenodd" clip-rule="evenodd" d="M13.854 5.83301C9.08817 5.83301 5.104 9.36072 5.104 13.8538C5.104 15.6359 5.73838 17.2765 6.79859 18.6007L5.85942 22.0468C5.82599 22.178 5.82947 22.3159 5.86948 22.4453C5.90949 22.5747 5.98448 22.6906 6.08617 22.78C6.18785 22.8695 6.31228 22.9291 6.44572 22.9523C6.57916 22.9755 6.71641 22.9614 6.84234 22.9115L10.9257 21.2111C11.1042 21.1367 11.2458 20.9944 11.3193 20.8155C11.3929 20.6366 11.3924 20.4359 11.318 20.2574C11.2435 20.0789 11.1012 19.9373 10.9223 19.8637C10.7435 19.7901 10.5427 19.7906 10.3642 19.8651L7.65755 20.9924L8.3065 18.6153C8.33836 18.4985 8.34064 18.3757 8.31314 18.2578C8.28564 18.1399 8.22924 18.0307 8.149 17.9401C7.15005 16.8113 6.56234 15.3924 6.56234 13.8538C6.56234 10.294 9.76046 7.29134 13.854 7.29134C17.2228 7.29134 19.9936 9.33009 20.8613 12.0353C16.2238 12.1724 12.3957 15.6476 12.3957 20.0518C12.3957 24.5449 16.3798 28.0726 21.1457 28.0726C22.235 28.0739 23.3164 27.8874 24.3423 27.5213L28.1573 29.1109C28.7057 29.3384 29.2978 28.8193 29.1403 28.2447L28.2011 24.7986C29.2927 23.457 29.8909 21.7814 29.8957 20.0518C29.8957 15.9582 26.5896 12.6668 22.3969 12.1126C21.5219 8.47842 17.9884 5.83301 13.854 5.83301ZM13.854 20.0518C13.854 16.492 17.0521 13.4893 21.1457 13.4893C25.2392 13.4893 28.4373 16.492 28.4373 20.0518C28.4373 21.5903 27.8496 23.0093 26.8507 24.138C26.7704 24.2286 26.714 24.3378 26.6865 24.4557C26.659 24.5736 26.6613 24.6964 26.6932 24.8132L27.3421 27.1903L24.6355 26.063C24.4598 25.9899 24.2625 25.9883 24.0857 26.0586C23.1492 26.4266 22.1518 26.6151 21.1457 26.6143C17.0521 26.6143 13.854 23.613 13.854 20.0518Z" fill="black"/>
</svg>
