<svg width="21" height="22" viewBox="0 0 21 22" fill="none" xmlns="http://www.w3.org/2000/svg">
<path d="M20.25 6.92121C20.25 8.71072 19.5712 10.4269 18.3628 11.6923C17.1545 12.9577 15.5157 13.6686 13.8068 13.6686C12.098 13.6686 10.4591 12.9577 9.2508 11.6923C8.04247 10.4269 7.36364 8.71072 7.36364 6.92121C7.36364 5.13169 8.04247 3.41547 9.2508 2.15009C10.4591 0.88471 12.098 0.173828 13.8068 0.173828C15.5157 0.173828 17.1545 0.88471 18.3628 2.15009C19.5712 3.41547 20.25 5.13169 20.25 6.92121ZM14.7273 3.06556C14.7273 2.80992 14.6303 2.56474 14.4577 2.38397C14.2851 2.2032 14.0509 2.10165 13.8068 2.10165C13.5627 2.10165 13.3286 2.2032 13.156 2.38397C12.9833 2.56474 12.8864 2.80992 12.8864 3.06556V5.95729H10.125C9.88088 5.95729 9.64676 6.05885 9.47414 6.23962C9.30152 6.42039 9.20455 6.66556 9.20455 6.92121C9.20455 7.17685 9.30152 7.42202 9.47414 7.60279C9.64676 7.78356 9.88088 7.88512 10.125 7.88512H12.8864V10.7768C12.8864 11.0325 12.9833 11.2777 13.156 11.4584C13.3286 11.6392 13.5627 11.7408 13.8068 11.7408C14.0509 11.7408 14.2851 11.6392 14.4577 11.4584C14.6303 11.2777 14.7273 11.0325 14.7273 10.7768V7.88512H17.4886C17.7328 7.88512 17.9669 7.78356 18.1395 7.60279C18.3121 7.42202 18.4091 7.17685 18.4091 6.92121C18.4091 6.66556 18.3121 6.42039 18.1395 6.23962C17.9669 6.05885 17.7328 5.95729 17.4886 5.95729H14.7273V3.06556ZM13.8068 15.5964C15.433 15.5968 17.0234 15.096 18.3796 14.1563C18.2663 15.0869 17.8329 15.9423 17.1606 16.5623C16.4882 17.1823 15.6231 17.5243 14.7273 17.5242H10.403L5.1122 21.2179C4.97359 21.3145 4.81256 21.3699 4.64626 21.3783C4.47995 21.3866 4.3146 21.3475 4.16782 21.2652C4.02103 21.1829 3.89832 21.0605 3.81273 20.9109C3.72715 20.7614 3.6819 20.5903 3.68182 20.416V17.5242C2.70534 17.5242 1.76885 17.118 1.07838 16.3949C0.387905 15.6719 0 14.6912 0 13.6686V5.95729C0 4.93471 0.387905 3.95402 1.07838 3.23094C1.76885 2.50787 2.70534 2.10165 3.68182 2.10165H6.91814C6.0847 3.40792 5.60562 4.92668 5.53206 6.49581C5.4585 8.06494 5.79321 9.62554 6.50045 11.011C7.2077 12.3965 8.26094 13.5549 9.54775 14.3624C10.8346 15.17 12.3066 15.5965 13.8068 15.5964Z" fill="#7B8892"/>
</svg>
