<svg width="16" height="16" viewBox="0 0 16 16" fill="none" xmlns="http://www.w3.org/2000/svg">
<path d="M6.28864 0.00344824C10.6909 0.00344824 10.725 0.186088 11.2702 0.596611C11.5594 0.814095 12.105 0.964963 14.0982 1.09479C14.243 1.10424 14.3804 1.1597 14.4726 1.27159C14.515 1.32317 15.5109 2.77557 15.5109 5.10152C15.5109 7.39383 14.7981 8.43887 14.7676 8.48755C14.7241 8.55714 14.6636 8.61453 14.5918 8.65431C14.52 8.69409 14.4392 8.71496 14.3571 8.71496C12.7207 8.71496 10.4521 10.8038 8.92679 14.4504C8.66305 15.0811 8.6088 15.4957 7.63981 15.4957C7.08883 15.4957 6.47125 15.1012 6.16585 14.595C5.54054 13.5609 5.85803 11.3398 6.15205 10.1528C5.15302 10.1608 3.34461 10.1746 2.48413 10.1746C1.28724 10.1746 0.495274 9.46087 0.470813 8.41727C0.463063 8.07288 0.50811 7.63282 0.607891 7.40565C0.344633 7.14288 0.00460187 6.7464 -0.0101564 6.23611C-0.02882 5.5776 0.402758 5.07604 0.677883 4.78807C0.614914 4.5965 0.488492 4.34245 0.500602 4.03873C0.531102 3.29184 1.10751 2.81037 1.46693 2.55922C1.43737 2.35554 1.41412 1.96974 1.47952 1.67185C1.73866 0.481738 3.48363 0.00341797 6.28864 0.00341797V0.00344824ZM13.841 2.07733C12.105 1.93371 11.177 1.73921 10.6876 1.3706C10.3088 1.08554 10.3674 0.972456 6.28873 0.972456C5.04486 0.972456 2.61208 1.02428 2.4256 1.87799C2.35125 2.21948 2.71138 2.55539 2.71283 2.55781C2.81116 2.80073 2.70145 3.0853 2.46168 3.19017C2.45781 3.19209 1.491 3.53867 1.46872 4.07924C1.45443 4.42484 1.69153 4.63239 1.6971 4.64085C1.83805 4.85979 1.78645 5.16035 1.5726 5.30929C1.57018 5.31123 0.943396 5.69098 0.958911 6.20902C0.970779 6.62001 1.51255 6.90967 1.52902 6.91935C1.65011 6.98862 1.73827 7.1085 1.76562 7.24582C1.79299 7.38243 1.76223 7.52628 1.67747 7.63696C1.67747 7.63696 1.43116 8.02857 1.43988 8.39549C1.4578 9.18163 2.30302 9.20633 2.48444 9.20633C3.70627 9.20633 6.84426 9.19349 6.84426 9.19349C7.01355 9.19301 7.16008 9.27293 7.2509 9.40831C7.34172 9.5437 7.34874 9.71203 7.29522 9.86582C6.82223 11.2286 6.558 13.3666 6.99684 14.0971C7.12593 14.3124 7.15572 14.5274 7.64009 14.5274C7.70718 14.5274 7.86701 14.4744 8.03363 14.0772C9.65314 10.2051 12.0707 7.96488 14.0508 7.76292C14.2215 7.37349 14.5427 6.56652 14.5427 5.10201C14.5422 3.60747 14.0687 2.45151 13.841 2.07733Z" fill="#7B8892"/>
</svg>
