<svg width="20" height="26" viewBox="0 0 20 26" fill="none" xmlns="http://www.w3.org/2000/svg">
<path d="M4.375 6.4375H8.125M4.375 13H15.625M4.375 16.75H15.625M4.375 20.5H8.125M2.5 25.1875H17.5C17.9973 25.1875 18.4742 24.99 18.8258 24.6383C19.1775 24.2867 19.375 23.8098 19.375 23.3125V2.6875C19.375 2.19022 19.1775 1.71331 18.8258 1.36167C18.4742 1.01004 17.9973 0.8125 17.5 0.8125H2.5C2.00272 0.8125 1.52581 1.01004 1.17417 1.36167C0.822544 1.71331 0.625 2.19022 0.625 2.6875V23.3125C0.625 23.8098 0.822544 24.2867 1.17417 24.6383C1.52581 24.99 2.00272 25.1875 2.5 25.1875Z" stroke="black" stroke-linecap="round" stroke-linejoin="round"/>
</svg>
