<svg width="18" height="20" viewBox="0 0 18 20" fill="none" xmlns="http://www.w3.org/2000/svg">
<path d="M13.5 17.857V19M13.5 17.857C13.0224 17.8588 12.5516 17.7439 12.1286 17.5222C11.7056 17.3005 11.3432 16.9788 11.073 16.585M13.5 17.857C13.9776 17.8588 14.4484 17.7439 14.8714 17.5222C15.2944 17.3005 15.6568 16.9788 15.927 16.585M11.073 16.585L10 17.285M11.073 16.585C10.7527 16.1185 10.5812 15.5659 10.5812 15C10.5812 14.4341 10.7527 13.8815 11.073 13.415M15.927 16.585L17 17.285M15.927 16.585C16.2473 16.1185 16.4188 15.5659 16.4188 15C16.4188 14.4341 16.2473 13.8815 15.927 13.415M13.5 12.143C13.9776 12.1412 14.4484 12.2561 14.8714 12.4778C15.2944 12.6995 15.6568 13.0212 15.927 13.415M13.5 12.143C13.0224 12.1412 12.5516 12.2561 12.1286 12.4778C11.7056 12.6995 11.3432 13.0212 11.073 13.415M13.5 12.143V11M15.927 13.415L17 12.714M11.073 13.415L10 12.715M1 1H17M1 7H17M1 13H6" stroke="black" stroke-width="1.5" stroke-linecap="round" stroke-linejoin="round"/>
</svg>
