<svg width="24" height="14" viewBox="0 0 24 14" fill="none" xmlns="http://www.w3.org/2000/svg">
<path d="M1.16659 13.583V11.4163H22.8333V13.583H1.16659ZM2.41242 7.02884L1.00409 6.21634L1.92492 4.59134H0.083252V2.96634H1.92492L1.00409 1.39551L2.41242 0.583008L3.33325 2.15384L4.25409 0.583008L5.66242 1.39551L4.74159 2.96634H6.58325V4.59134H4.74159L5.66242 6.21634L4.25409 7.02884L3.33325 5.40384L2.41242 7.02884ZM11.0791 7.02884L9.67075 6.21634L10.5916 4.59134H8.74992V2.96634H10.5916L9.67075 1.39551L11.0791 0.583008L11.9999 2.15384L12.9208 0.583008L14.3291 1.39551L13.4083 2.96634H15.2499V4.59134H13.4083L14.3291 6.21634L12.9208 7.02884L11.9999 5.40384L11.0791 7.02884ZM19.7458 7.02884L18.3374 6.21634L19.2583 4.59134H17.4166V2.96634H19.2583L18.3374 1.39551L19.7458 0.583008L20.6666 2.15384L21.5874 0.583008L22.9958 1.39551L22.0749 2.96634H23.9166V4.59134H22.0749L22.9958 6.21634L21.5874 7.02884L20.6666 5.40384L19.7458 7.02884Z" fill="black"/>
</svg>
