<svg width="26" height="23" viewBox="0 0 26 23" fill="none" xmlns="http://www.w3.org/2000/svg">
<path d="M13 5C13 5 13 5 12.05 3.75C10.95 2.3 9.325 1.25 7.375 1.25C4.2625 1.25 1.75 3.7625 1.75 6.875C1.75 8.0375 2.1 9.1125 2.7 10C3.7125 11.5125 13 21.25 13 21.25M13 5C13 5 13 5 13.95 3.75C15.05 2.3 16.675 1.25 18.625 1.25C21.7375 1.25 24.25 3.7625 24.25 6.875C24.25 8.0375 23.9 9.1125 23.3 10C22.2875 11.5125 13 21.25 13 21.25" fill="#FF0000"/>
<path d="M13 5C13 5 13 5 12.05 3.75C10.95 2.3 9.325 1.25 7.375 1.25C4.2625 1.25 1.75 3.7625 1.75 6.875C1.75 8.0375 2.1 9.1125 2.7 10C3.7125 11.5125 13 21.25 13 21.25C13 21.25 22.2875 11.5125 23.3 10C23.9 9.1125 24.25 8.0375 24.25 6.875C24.25 3.7625 21.7375 1.25 18.625 1.25C16.675 1.25 15.05 2.3 13.95 3.75C13 5 13 5 13 5Z" stroke="#FF0000" stroke-width="2" stroke-linecap="round" stroke-linejoin="round"/>
</svg>
