<svg width="16" height="17" viewBox="0 0 16 17" fill="none" xmlns="http://www.w3.org/2000/svg">
<path d="M8 12.5162C8.17467 12.5162 8.321 12.4573 8.439 12.3395C8.55633 12.2218 8.615 12.0761 8.615 11.9024C8.615 11.7288 8.556 11.5828 8.438 11.4644C8.32 11.3459 8.174 11.2871 8 11.2877C7.826 11.2884 7.68 11.3473 7.562 11.4644C7.444 11.5814 7.385 11.7275 7.385 11.9024C7.385 12.0774 7.444 12.2231 7.562 12.3395C7.68 12.4559 7.826 12.5148 8 12.5162ZM8 9.56135C8.14267 9.56135 8.26167 9.51345 8.357 9.41765C8.45233 9.32185 8.5 9.2031 8.5 9.06139V3.99601C8.5 3.85431 8.452 3.73556 8.356 3.63976C8.26 3.54396 8.141 3.49639 7.999 3.49706C7.857 3.49772 7.73833 3.54529 7.643 3.63976C7.54767 3.73423 7.5 3.85298 7.5 3.99601V9.06239C7.5 9.20343 7.548 9.32185 7.644 9.41765C7.74 9.51345 7.859 9.56135 8.001 9.56135M5.344 16.0857C5.12333 16.0857 4.91267 16.0424 4.712 15.9559C4.51133 15.8695 4.33867 15.7534 4.194 15.6077L0.48 11.9004C0.335333 11.7561 0.219333 11.5838 0.132 11.3835C0.0446666 11.1833 0.000666667 10.9731 0 10.7528V5.45196C0 5.23176 0.0433334 5.02153 0.13 4.82128C0.216667 4.62104 0.333 4.44873 0.479 4.30437L4.194 0.598136C4.33867 0.453107 4.51133 0.33735 4.712 0.250864C4.91267 0.164379 5.12333 0.120471 5.344 0.119141H10.656C10.8767 0.119141 11.0873 0.162383 11.288 0.248869C11.4887 0.335354 11.6613 0.451444 11.806 0.597139L15.521 4.30437C15.6663 4.44873 15.7823 4.62104 15.869 4.82128C15.9557 5.02153 15.9993 5.23176 16 5.45196V10.7528C16 10.9731 15.9567 11.1833 15.87 11.3835C15.7833 11.5838 15.667 11.7561 15.521 11.9004L11.806 15.6077C11.6613 15.7527 11.4887 15.8685 11.288 15.9549C11.0873 16.0414 10.8767 16.085 10.656 16.0857H5.344ZM5.1 15.0878H10.9L15 10.9963V5.20847L10.9 1.11705H5.1L1 5.20847V10.9963L5.1 15.0878Z" fill="#FF0000"/>
</svg>
