<svg width="18" height="18" viewBox="0 0 18 18" fill="none" xmlns="http://www.w3.org/2000/svg">
<path fill-rule="evenodd" clip-rule="evenodd" d="M0.291662 9.08822C0.291662 7.36587 0.802397 5.68221 1.75928 4.25013C2.71616 2.81805 4.07622 1.70188 5.66746 1.04277C7.2587 0.383656 9.00965 0.211202 10.6989 0.547215C12.3882 0.883228 13.9398 1.71262 15.1577 2.9305C16.3756 4.14838 17.205 5.70006 17.541 7.38931C17.877 9.07856 17.7046 10.8295 17.0454 12.4208C16.3863 14.012 15.2702 15.3721 13.8381 16.3289C12.406 17.2858 10.7223 17.7966 9 17.7966H0.979162C0.843276 17.7964 0.710472 17.7561 0.597524 17.6805C0.484577 17.6049 0.396551 17.4976 0.344566 17.3721C0.292581 17.2465 0.278967 17.1084 0.305444 16.9751C0.331921 16.8418 0.397302 16.7194 0.493329 16.6232L2.37525 14.7404C1.02832 13.1654 0.289258 11.1606 0.291662 9.08822ZM9 1.75489C7.54956 1.75483 6.13168 2.1849 4.92567 2.99069C3.71966 3.79648 2.77969 4.94181 2.22463 6.28184C1.66956 7.62186 1.52434 9.09639 1.80732 10.519C2.0903 11.9415 2.78877 13.2482 3.81441 14.2738C3.94316 14.4027 4.01547 14.5774 4.01547 14.7596C4.01547 14.9418 3.94316 15.1166 3.81441 15.2455L2.63925 16.4216H9C10.9449 16.4216 12.8102 15.6489 14.1854 14.2737C15.5607 12.8984 16.3333 11.0331 16.3333 9.08822C16.3333 7.1433 15.5607 5.27804 14.1854 3.90277C12.8102 2.5275 10.9449 1.75489 9 1.75489Z" fill="#979696"/>
</svg>
