<svg width="19" height="12" viewBox="0 0 19 12" fill="none" xmlns="http://www.w3.org/2000/svg">
<path d="M2.67949 0C1.96884 0 1.2873 0.267444 0.784804 0.743498C0.282302 1.21955 0 1.86522 0 2.53846V9.46154C0 10.1348 0.282302 10.7804 0.784804 11.2565C1.2873 11.7326 1.96884 12 2.67949 12H10.9615C11.6722 12 12.3537 11.7326 12.8562 11.2565C13.3587 10.7804 13.641 10.1348 13.641 9.46154V7.99015L16.9724 10.8009C17.7567 11.4628 19 10.9348 19 9.93877V1.72154C19 0.724615 17.7567 0.197539 16.9724 0.859385L13.641 3.67015V2.53846C13.641 1.86522 13.3587 1.21955 12.8562 0.743498C12.3537 0.267444 11.6722 0 10.9615 0H2.67949Z" fill="white"/>
</svg>
